<svg width="227" height="41" viewBox="0 0 227 41" fill="none" xmlns="http://www.w3.org/2000/svg">
<rect width="227" height="41" fill="white"/>
<g filter="url(#filter0_i_51_3)">
<path fill-rule="evenodd" clip-rule="evenodd" d="M28.6325 18.5744C31.1687 23.2531 35.3514 32.7693 32.6602 35.0978C32.653 35.104 32.6455 35.1091 32.637 35.1134C31.3682 35.7641 27.8729 35.8085 23.9075 30.8404C23.8834 30.8102 23.8462 30.7916 23.8076 30.7916H23.0778C23.0343 30.7916 22.9947 30.8127 22.9715 30.8496C20.1411 35.3497 13.801 43.4482 10.7838 40.2856C9.68134 39.2122 8.64716 34.8558 13.3302 26.0177C14.3887 24.025 16.5097 20.1477 17.295 19.1107C17.3634 19.0204 17.3051 18.861 17.1924 18.8519C15.5221 18.7179 11.9426 18.7865 8.5477 19.9649C8.4339 20.0044 8.43671 20.1635 8.55187 20.1989C9.84843 20.5964 12.0441 21.1915 12.9035 21.138C12.9708 21.1338 13.0333 21.1769 13.0477 21.243L13.643 23.9743C13.6595 24.0503 13.6069 24.1232 13.5294 24.1273C10.4018 24.2921 4.14952 23.7134 3.03619 20.0893C2.63505 18.4231 5.40391 14.9556 19.6731 14.3954C19.7122 14.3938 19.7499 14.3742 19.7727 14.3422L20.5532 13.2468C20.5804 13.2085 20.5849 13.1593 20.5637 13.1174C19.9301 11.8702 18.3716 9.41227 16.8019 8.75822C16.7221 8.72498 16.6377 8.7855 16.6404 8.8721C16.6635 9.61367 16.8329 10.8773 17.3686 11.3614C17.4298 11.4167 17.442 11.5149 17.3837 11.5733L14.7105 14.2535C14.6454 14.3188 14.5349 14.2949 14.5031 14.2083C13.7958 12.284 12.5055 8.2847 12.5055 6.27982C12.5055 4.21775 15.2354 3.92333 16.6188 4.03424C16.6316 4.03526 16.6434 4.03814 16.6552 4.043C18.7088 4.88675 20.8739 7.24954 22.2094 8.70694C22.4662 8.98719 22.6923 9.23396 22.8811 9.43002C22.9423 9.49365 23.045 9.47862 23.085 9.39975C24.5442 6.51664 31.7897 -1.00934 34.4796 0.113214C34.4979 0.120853 34.5134 0.132834 34.5259 0.148218L34.548 0.175224C36.0854 2.05792 38.0908 4.51363 32.728 14.2505C32.6887 14.3218 32.5917 14.3412 32.5312 14.287L29.4483 11.5213C29.4066 11.484 29.3937 11.425 29.4174 11.3742C30.2881 9.5042 31.8876 5.82478 31.6163 5.41672C31.3417 5.00368 27.2791 10.3903 25.2641 13.1597C25.2519 13.1765 25.2444 13.1951 25.2419 13.2157C25.1919 13.6274 25.2634 14.3929 25.9347 14.3929C26.7956 14.3929 43.6682 14.7381 42.9795 20.0893C42.4371 24.3035 35.7327 24.9602 32.2937 24.7601C32.211 24.7553 32.1581 24.6738 32.1841 24.595C32.541 23.5116 33.1658 21.5196 33.1658 21.125C33.1658 20.919 33.7651 20.9042 34.5411 20.885C35.716 20.856 37.296 20.817 37.8144 20.0893C38.5031 19.1226 35.0023 18.881 33.1658 18.881L28.7597 18.3901C28.6578 18.3788 28.5835 18.4841 28.6325 18.5744ZM16.0133 33.3166C15.4783 34.0078 14.7291 33.6965 15.0059 32.8674C16.2521 29.1348 19.8304 22.6003 22.0305 18.8523C22.2092 18.5478 22.5356 18.3631 22.8886 18.3631H24.0671C24.2741 18.3631 24.478 18.4233 24.6325 18.561C26.4171 20.152 28.1526 25.1656 29.2107 28.9766C29.4544 29.8544 28.4476 30.4941 27.737 29.9241V29.9241C27.4734 29.7127 27.1184 29.6584 26.7967 29.7616C23.7139 30.7513 21.1324 30.2072 19.7425 29.9143C19.1489 29.7892 18.7726 29.7099 18.6674 29.8154C18.6116 29.8713 18.3123 30.2717 17.8845 30.8442C17.3776 31.5223 16.6903 32.442 16.0133 33.3166Z" fill="#0038FF"/>
</g>
<path d="M49.304 32V9.504H53.656V32H49.304ZM52.504 32V28.16H64.952V32H52.504ZM52.504 22.368V18.656H63.832V22.368H52.504ZM52.504 13.344V9.504H64.792V13.344H52.504ZM74.3825 32.32C72.9745 32.32 71.7052 31.968 70.5745 31.264C69.4438 30.56 68.5585 29.6 67.9185 28.384C67.2785 27.168 66.9585 25.8027 66.9585 24.288C66.9585 22.752 67.2785 21.376 67.9185 20.16C68.5585 18.944 69.4438 17.984 70.5745 17.28C71.7052 16.576 72.9745 16.224 74.3825 16.224C75.4918 16.224 76.4838 16.448 77.3585 16.896C78.2332 17.344 78.9265 17.9733 79.4385 18.784C79.9718 19.5733 80.2598 20.4693 80.3025 21.472V27.04C80.2598 28.064 79.9718 28.9707 79.4385 29.76C78.9265 30.5493 78.2332 31.1787 77.3585 31.648C76.4838 32.096 75.4918 32.32 74.3825 32.32ZM75.1505 28.448C76.3238 28.448 77.2732 28.064 77.9985 27.296C78.7238 26.5067 79.0865 25.4933 79.0865 24.256C79.0865 23.4453 78.9158 22.7307 78.5745 22.112C78.2545 21.472 77.7958 20.9813 77.1985 20.64C76.6225 20.2773 75.9398 20.096 75.1505 20.096C74.3825 20.096 73.6998 20.2773 73.1025 20.64C72.5265 20.9813 72.0678 21.472 71.7265 22.112C71.4065 22.7307 71.2465 23.4453 71.2465 24.256C71.2465 25.088 71.4065 25.824 71.7265 26.464C72.0678 27.0827 72.5265 27.5733 73.1025 27.936C73.6998 28.2773 74.3825 28.448 75.1505 28.448ZM78.8625 38.464V28.096L79.5345 24.352L78.8625 20.608V16.544H83.0225V38.464H78.8625ZM93.323 32.32C91.9577 32.32 90.7417 32.032 89.675 31.456C88.6297 30.88 87.8083 30.08 87.211 29.056C86.6137 28.032 86.315 26.848 86.315 25.504V16.544H90.539V25.408C90.539 26.048 90.6457 26.6027 90.859 27.072C91.0723 27.52 91.3923 27.8613 91.819 28.096C92.2457 28.3307 92.747 28.448 93.323 28.448C94.1977 28.448 94.8803 28.1813 95.371 27.648C95.8617 27.1147 96.107 26.368 96.107 25.408V16.544H100.299V25.504C100.299 26.8693 100 28.064 99.403 29.088C98.827 30.112 98.0057 30.912 96.939 31.488C95.8937 32.0427 94.6883 32.32 93.323 32.32ZM103.637 32V16.544H107.861V32H103.637ZM105.749 14.048C105.067 14.048 104.501 13.824 104.053 13.376C103.605 12.9067 103.381 12.3307 103.381 11.648C103.381 10.9867 103.605 10.4213 104.053 9.952C104.501 9.48267 105.067 9.248 105.749 9.248C106.453 9.248 107.019 9.48267 107.445 9.952C107.893 10.4213 108.117 10.9867 108.117 11.648C108.117 12.3307 107.893 12.9067 107.445 13.376C107.019 13.824 106.453 14.048 105.749 14.048ZM122.455 32.32C120.812 32.32 119.287 32.032 117.879 31.456C116.471 30.8587 115.233 30.0373 114.167 28.992C113.121 27.9253 112.311 26.688 111.735 25.28C111.18 23.872 110.903 22.3573 110.903 20.736C110.903 19.1147 111.18 17.6 111.735 16.192C112.311 14.784 113.121 13.5573 114.167 12.512C115.233 11.4667 116.46 10.6453 117.847 10.048C119.255 9.45067 120.791 9.152 122.455 9.152C124.247 9.152 125.825 9.45067 127.191 10.048C128.556 10.624 129.761 11.424 130.807 12.448L127.863 15.392C127.244 14.7093 126.487 14.176 125.591 13.792C124.695 13.408 123.649 13.216 122.455 13.216C121.409 13.216 120.449 13.3973 119.575 13.76C118.721 14.1013 117.975 14.6133 117.335 15.296C116.695 15.9573 116.204 16.7573 115.863 17.696C115.521 18.6133 115.351 19.6267 115.351 20.736C115.351 21.8667 115.521 22.8907 115.863 23.808C116.204 24.7253 116.695 25.5253 117.335 26.208C117.975 26.8693 118.721 27.3813 119.575 27.744C120.449 28.1067 121.409 28.288 122.455 28.288C123.713 28.288 124.791 28.096 125.687 27.712C126.604 27.328 127.372 26.784 127.991 26.08L130.935 29.024C129.889 30.0693 128.673 30.88 127.287 31.456C125.9 32.032 124.289 32.32 122.455 32.32ZM143.912 32V23.136C143.912 22.2187 143.624 21.472 143.048 20.896C142.472 20.32 141.726 20.032 140.808 20.032C140.211 20.032 139.678 20.16 139.208 20.416C138.739 20.672 138.366 21.0347 138.088 21.504C137.832 21.9733 137.704 22.5173 137.704 23.136L136.072 22.304C136.072 21.088 136.328 20.032 136.84 19.136C137.352 18.2187 138.056 17.504 138.952 16.992C139.87 16.48 140.915 16.224 142.088 16.224C143.262 16.224 144.296 16.48 145.192 16.992C146.11 17.504 146.824 18.208 147.336 19.104C147.848 20 148.104 21.0347 148.104 22.208V32H143.912ZM133.512 32V8.864H137.704V32H133.512ZM157.945 32.32C156.537 32.32 155.268 31.968 154.137 31.264C153.006 30.56 152.121 29.6 151.481 28.384C150.841 27.168 150.521 25.8027 150.521 24.288C150.521 22.752 150.841 21.376 151.481 20.16C152.121 18.944 153.006 17.984 154.137 17.28C155.268 16.576 156.537 16.224 157.945 16.224C159.054 16.224 160.046 16.448 160.921 16.896C161.796 17.344 162.489 17.9733 163.001 18.784C163.534 19.5733 163.822 20.4693 163.865 21.472V27.04C163.822 28.064 163.534 28.9707 163.001 29.76C162.489 30.5493 161.796 31.1787 160.921 31.648C160.046 32.096 159.054 32.32 157.945 32.32ZM158.713 28.448C159.886 28.448 160.836 28.064 161.561 27.296C162.286 26.5067 162.649 25.4933 162.649 24.256C162.649 23.4453 162.478 22.7307 162.137 22.112C161.817 21.472 161.358 20.9813 160.761 20.64C160.185 20.2773 159.502 20.096 158.713 20.096C157.945 20.096 157.262 20.2773 156.665 20.64C156.089 20.9813 155.63 21.472 155.289 22.112C154.969 22.7307 154.809 23.4453 154.809 24.256C154.809 25.088 154.969 25.824 155.289 26.464C155.63 27.0827 156.089 27.5733 156.665 27.936C157.262 28.2773 157.945 28.448 158.713 28.448ZM162.425 32V27.84L163.097 24.064L162.425 20.352V16.544H166.585V32H162.425ZM170.294 32V16.544H174.518V32H170.294ZM172.406 14.048C171.723 14.048 171.158 13.824 170.71 13.376C170.262 12.9067 170.038 12.3307 170.038 11.648C170.038 10.9867 170.262 10.4213 170.71 9.952C171.158 9.48267 171.723 9.248 172.406 9.248C173.11 9.248 173.675 9.48267 174.102 9.952C174.55 10.4213 174.774 10.9867 174.774 11.648C174.774 12.3307 174.55 12.9067 174.102 13.376C173.675 13.824 173.11 14.048 172.406 14.048ZM188.631 32V23.136C188.631 22.2187 188.343 21.472 187.767 20.896C187.191 20.32 186.444 20.032 185.527 20.032C184.93 20.032 184.396 20.16 183.927 20.416C183.458 20.672 183.084 21.0347 182.807 21.504C182.551 21.9733 182.423 22.5173 182.423 23.136L180.791 22.304C180.791 21.088 181.047 20.032 181.559 19.136C182.092 18.2187 182.818 17.504 183.735 16.992C184.674 16.48 185.73 16.224 186.903 16.224C188.034 16.224 189.047 16.512 189.943 17.088C190.839 17.6427 191.543 18.3787 192.055 19.296C192.567 20.192 192.823 21.1627 192.823 22.208V32H188.631ZM178.231 32V16.544H182.423V32H178.231ZM199.08 32.32C198.312 32.32 197.682 32.064 197.192 31.552C196.701 31.04 196.456 30.4107 196.456 29.664C196.456 28.9173 196.701 28.288 197.192 27.776C197.682 27.264 198.312 27.008 199.08 27.008C199.826 27.008 200.445 27.264 200.936 27.776C201.426 28.288 201.672 28.9173 201.672 29.664C201.672 30.4107 201.426 31.04 200.936 31.552C200.445 32.064 199.826 32.32 199.08 32.32ZM206.685 32V14.4C206.685 13.2907 206.931 12.2987 207.421 11.424C207.912 10.528 208.595 9.824 209.469 9.312C210.365 8.77867 211.421 8.512 212.637 8.512C213.405 8.512 214.088 8.62933 214.685 8.864C215.304 9.09867 215.891 9.44 216.445 9.888L214.045 12.832C213.853 12.6827 213.64 12.576 213.405 12.512C213.192 12.4267 212.936 12.384 212.637 12.384C212.083 12.384 211.645 12.5547 211.325 12.896C211.027 13.216 210.877 13.664 210.877 14.24V32H206.685ZM203.101 20.224V16.544H218.429V20.224H203.101ZM216.413 32V16.544H220.605V32H216.413ZM218.493 15.296C217.832 15.296 217.277 15.072 216.829 14.624C216.403 14.176 216.189 13.6213 216.189 12.96C216.189 12.2987 216.403 11.744 216.829 11.296C217.277 10.848 217.832 10.624 218.493 10.624C219.176 10.624 219.731 10.848 220.157 11.296C220.584 11.744 220.797 12.2987 220.797 12.96C220.797 13.6213 220.584 14.176 220.157 14.624C219.731 15.072 219.176 15.296 218.493 15.296Z" fill="black"/>
<defs>
<filter id="filter0_i_51_3" x="3" y="0" width="40" height="45" filterUnits="userSpaceOnUse" color-interpolation-filters="sRGB">
<feFlood flood-opacity="0" result="BackgroundImageFix"/>
<feBlend mode="normal" in="SourceGraphic" in2="BackgroundImageFix" result="shape"/>
<feColorMatrix in="SourceAlpha" type="matrix" values="0 0 0 0 0 0 0 0 0 0 0 0 0 0 0 0 0 0 127 0" result="hardAlpha"/>
<feOffset dy="4"/>
<feGaussianBlur stdDeviation="2"/>
<feComposite in2="hardAlpha" operator="arithmetic" k2="-1" k3="1"/>
<feColorMatrix type="matrix" values="0 0 0 0 0 0 0 0 0 0 0 0 0 0 0 0 0 0 0.25 0"/>
<feBlend mode="normal" in2="shape" result="effect1_innerShadow_51_3"/>
</filter>
</defs>
</svg>
