<svg width="1771" height="344" viewBox="0 0 1771 344" fill="none" xmlns="http://www.w3.org/2000/svg">
<g clip-path="url(#clip0_17_5)">
<rect width="1771" height="344" fill="black"/>
<path d="M392 262V86.25H426V262H392ZM417 262V232H514.25V262H417ZM417 186.75V157.75H505.5V186.75H417ZM417 116.25V86.25H513V116.25H417ZM587.926 264.5C576.926 264.5 567.009 261.75 558.176 256.25C549.342 250.75 542.426 243.25 537.426 233.75C532.426 224.25 529.926 213.583 529.926 201.75C529.926 189.75 532.426 179 537.426 169.5C542.426 160 549.342 152.5 558.176 147C567.009 141.5 576.926 138.75 587.926 138.75C596.592 138.75 604.342 140.5 611.176 144C618.009 147.5 623.426 152.417 627.426 158.75C631.592 164.917 633.842 171.917 634.176 179.75V223.25C633.842 231.25 631.592 238.333 627.426 244.5C623.426 250.667 618.009 255.583 611.176 259.25C604.342 262.75 596.592 264.5 587.926 264.5ZM593.926 234.25C603.092 234.25 610.509 231.25 616.176 225.25C621.842 219.083 624.676 211.167 624.676 201.5C624.676 195.167 623.342 189.583 620.676 184.75C618.176 179.75 614.592 175.917 609.926 173.25C605.426 170.417 600.092 169 593.926 169C587.926 169 582.592 170.417 577.926 173.25C573.426 175.917 569.842 179.75 567.176 184.75C564.676 189.583 563.426 195.167 563.426 201.5C563.426 208 564.676 213.75 567.176 218.75C569.842 223.583 573.426 227.417 577.926 230.25C582.592 232.917 587.926 234.25 593.926 234.25ZM622.926 312.5V231.5L628.176 202.25L622.926 173V141.25H655.426V312.5H622.926ZM735.898 264.5C725.232 264.5 715.732 262.25 707.398 257.75C699.232 253.25 692.815 247 688.148 239C683.482 231 681.148 221.75 681.148 211.25V141.25H714.148V210.5C714.148 215.5 714.982 219.833 716.648 223.5C718.315 227 720.815 229.667 724.148 231.5C727.482 233.333 731.398 234.25 735.898 234.25C742.732 234.25 748.065 232.167 751.898 228C755.732 223.833 757.648 218 757.648 210.5V141.25H790.398V211.25C790.398 221.917 788.065 231.25 783.398 239.25C778.898 247.25 772.482 253.5 764.148 258C755.982 262.333 746.565 264.5 735.898 264.5ZM816.479 262V141.25H849.479V262H816.479ZM832.979 121.75C827.645 121.75 823.229 120 819.729 116.5C816.229 112.833 814.479 108.333 814.479 103C814.479 97.8333 816.229 93.4167 819.729 89.75C823.229 86.0833 827.645 84.25 832.979 84.25C838.479 84.25 842.895 86.0833 846.229 89.75C849.729 93.4167 851.479 97.8333 851.479 103C851.479 108.333 849.729 112.833 846.229 116.5C842.895 120 838.479 121.75 832.979 121.75ZM963.49 264.5C950.657 264.5 938.74 262.25 927.74 257.75C916.74 253.083 907.074 246.667 898.74 238.5C890.574 230.167 884.24 220.5 879.74 209.5C875.407 198.5 873.24 186.667 873.24 174C873.24 161.333 875.407 149.5 879.74 138.5C884.24 127.5 890.574 117.917 898.74 109.75C907.074 101.583 916.657 95.1667 927.49 90.5C938.49 85.8333 950.49 83.5 963.49 83.5C977.49 83.5 989.824 85.8333 1000.49 90.5C1011.16 95 1020.57 101.25 1028.74 109.25L1005.74 132.25C1000.91 126.917 994.99 122.75 987.99 119.75C980.99 116.75 972.824 115.25 963.49 115.25C955.324 115.25 947.824 116.667 940.99 119.5C934.324 122.167 928.49 126.167 923.49 131.5C918.49 136.667 914.657 142.917 911.99 150.25C909.324 157.417 907.99 165.333 907.99 174C907.99 182.833 909.324 190.833 911.99 198C914.657 205.167 918.49 211.417 923.49 216.75C928.49 221.917 934.324 225.917 940.99 228.75C947.824 231.583 955.324 233 963.49 233C973.324 233 981.74 231.5 988.74 228.5C995.907 225.5 1001.91 221.25 1006.74 215.75L1029.74 238.75C1021.57 246.917 1012.07 253.25 1001.24 257.75C990.407 262.25 977.824 264.5 963.49 264.5ZM1131.13 262V192.75C1131.13 185.583 1128.88 179.75 1124.38 175.25C1119.88 170.75 1114.04 168.5 1106.88 168.5C1102.21 168.5 1098.04 169.5 1094.38 171.5C1090.71 173.5 1087.79 176.333 1085.63 180C1083.63 183.667 1082.63 187.917 1082.63 192.75L1069.88 186.25C1069.88 176.75 1071.88 168.5 1075.88 161.5C1079.88 154.333 1085.38 148.75 1092.38 144.75C1099.54 140.75 1107.71 138.75 1116.88 138.75C1126.04 138.75 1134.13 140.75 1141.13 144.75C1148.29 148.75 1153.88 154.25 1157.88 161.25C1161.88 168.25 1163.88 176.333 1163.88 185.5V262H1131.13ZM1049.88 262V81.25H1082.63V262H1049.88ZM1240.76 264.5C1229.76 264.5 1219.84 261.75 1211.01 256.25C1202.17 250.75 1195.26 243.25 1190.26 233.75C1185.26 224.25 1182.76 213.583 1182.76 201.75C1182.76 189.75 1185.26 179 1190.26 169.5C1195.26 160 1202.17 152.5 1211.01 147C1219.84 141.5 1229.76 138.75 1240.76 138.75C1249.42 138.75 1257.17 140.5 1264.01 144C1270.84 147.5 1276.26 152.417 1280.26 158.75C1284.42 164.917 1286.67 171.917 1287.01 179.75V223.25C1286.67 231.25 1284.42 238.333 1280.26 244.5C1276.26 250.667 1270.84 255.583 1264.01 259.25C1257.17 262.75 1249.42 264.5 1240.76 264.5ZM1246.76 234.25C1255.92 234.25 1263.34 231.25 1269.01 225.25C1274.67 219.083 1277.51 211.167 1277.51 201.5C1277.51 195.167 1276.17 189.583 1273.51 184.75C1271.01 179.75 1267.42 175.917 1262.76 173.25C1258.26 170.417 1252.92 169 1246.76 169C1240.76 169 1235.42 170.417 1230.76 173.25C1226.26 175.917 1222.67 179.75 1220.01 184.75C1217.51 189.583 1216.26 195.167 1216.26 201.5C1216.26 208 1217.51 213.75 1220.01 218.75C1222.67 223.583 1226.26 227.417 1230.76 230.25C1235.42 232.917 1240.76 234.25 1246.76 234.25ZM1275.76 262V229.5L1281.01 200L1275.76 171V141.25H1308.26V262H1275.76ZM1337.23 262V141.25H1370.23V262H1337.23ZM1353.73 121.75C1348.4 121.75 1343.98 120 1340.48 116.5C1336.98 112.833 1335.23 108.333 1335.23 103C1335.23 97.8333 1336.98 93.4167 1340.48 89.75C1343.98 86.0833 1348.4 84.25 1353.73 84.25C1359.23 84.25 1363.65 86.0833 1366.98 89.75C1370.48 93.4167 1372.23 97.8333 1372.23 103C1372.23 108.333 1370.48 112.833 1366.98 116.5C1363.65 120 1359.23 121.75 1353.73 121.75ZM1480.49 262V192.75C1480.49 185.583 1478.24 179.75 1473.74 175.25C1469.24 170.75 1463.41 168.5 1456.24 168.5C1451.58 168.5 1447.41 169.5 1443.74 171.5C1440.08 173.5 1437.16 176.333 1434.99 180C1432.99 183.667 1431.99 187.917 1431.99 192.75L1419.24 186.25C1419.24 176.75 1421.24 168.5 1425.24 161.5C1429.41 154.333 1435.08 148.75 1442.24 144.75C1449.58 140.75 1457.83 138.75 1466.99 138.75C1475.83 138.75 1483.74 141 1490.74 145.5C1497.74 149.833 1503.24 155.583 1507.24 162.75C1511.24 169.75 1513.24 177.333 1513.24 185.5V262H1480.49ZM1399.24 262V141.25H1431.99V262H1399.24ZM1562.12 264.5C1556.12 264.5 1551.21 262.5 1547.37 258.5C1543.54 254.5 1541.62 249.583 1541.62 243.75C1541.62 237.917 1543.54 233 1547.37 229C1551.21 225 1556.12 223 1562.12 223C1567.96 223 1572.79 225 1576.62 229C1580.46 233 1582.37 237.917 1582.37 243.75C1582.37 249.583 1580.46 254.5 1576.62 258.5C1572.79 262.5 1567.96 264.5 1562.12 264.5ZM1621.54 262V124.5C1621.54 115.833 1623.46 108.083 1627.29 101.25C1631.12 94.25 1636.46 88.75 1643.29 84.75C1650.29 80.5833 1658.54 78.5 1668.04 78.5C1674.04 78.5 1679.37 79.4167 1684.04 81.25C1688.87 83.0833 1693.46 85.75 1697.79 89.25L1679.04 112.25C1677.54 111.083 1675.87 110.25 1674.04 109.75C1672.37 109.083 1670.37 108.75 1668.04 108.75C1663.71 108.75 1660.29 110.083 1657.79 112.75C1655.46 115.25 1654.29 118.75 1654.29 123.25V262H1621.54ZM1593.54 170V141.25H1713.29V170H1593.54ZM1697.54 262V141.25H1730.29V262H1697.54ZM1713.79 131.5C1708.62 131.5 1704.29 129.75 1700.79 126.25C1697.46 122.75 1695.79 118.417 1695.79 113.25C1695.79 108.083 1697.46 103.75 1700.79 100.25C1704.29 96.75 1708.62 95 1713.79 95C1719.12 95 1723.46 96.75 1726.79 100.25C1730.12 103.75 1731.79 108.083 1731.79 113.25C1731.79 118.417 1730.12 122.75 1726.79 126.25C1723.46 129.75 1719.12 131.5 1713.79 131.5Z" fill="white"/>
<g filter="url(#filter0_di_17_5)">
<path fill-rule="evenodd" clip-rule="evenodd" d="M239.497 156.33C259.533 193.189 292.576 268.158 271.315 286.502C271.259 286.551 271.199 286.591 271.133 286.625C261.109 291.751 233.496 292.101 202.169 252.962C201.979 252.724 201.685 252.578 201.38 252.578H195.615C195.271 252.578 194.958 252.744 194.774 253.035C172.414 288.487 122.328 352.287 98.4921 327.372C89.7826 318.916 81.6125 284.596 118.608 214.969C126.971 199.27 143.727 168.725 149.93 160.555C150.471 159.843 150.01 158.588 149.12 158.517C135.925 157.461 107.646 158.001 80.8268 167.284C79.9278 167.596 79.95 168.849 80.8598 169.128C91.1026 172.259 108.448 176.947 115.238 176.526C115.77 176.493 116.263 176.833 116.377 177.353L121.08 198.871C121.21 199.47 120.795 200.044 120.182 200.076C95.4742 201.374 46.0812 196.815 37.2859 168.264C34.1169 155.138 55.9909 127.821 168.717 123.407C169.026 123.395 169.325 123.241 169.504 122.989L175.67 114.359C175.885 114.057 175.921 113.67 175.753 113.34C170.748 103.514 158.436 84.1504 146.035 78.9977C145.405 78.7358 144.738 79.2126 144.759 79.8948C144.942 85.737 146.28 95.6923 150.512 99.5055C150.996 99.9411 151.092 100.715 150.632 101.175L129.513 122.29C128.999 122.804 128.126 122.616 127.875 121.934C122.287 106.774 112.093 75.2673 112.093 59.4727C112.093 43.2276 133.66 40.9082 144.589 41.782C144.689 41.79 144.783 41.8127 144.876 41.8509C161.1 48.498 178.204 67.1122 188.754 78.5937C190.783 80.8015 192.569 82.7456 194.061 84.2901C194.545 84.7914 195.356 84.673 195.671 84.0517C207.2 61.3384 264.438 2.04836 285.689 10.8919C285.834 10.9521 285.956 11.0465 286.055 11.1677L286.229 11.3804C298.375 26.2124 314.217 45.5586 271.851 122.266C271.541 122.828 270.775 122.981 270.297 122.553L245.942 100.766C245.612 100.471 245.511 100.006 245.697 99.6062C252.576 84.8745 265.212 55.8879 263.069 52.6732C260.899 49.4192 228.805 91.855 212.887 113.673C212.79 113.805 212.731 113.952 212.711 114.114C212.316 117.357 212.881 123.388 218.184 123.388C224.985 123.388 358.278 126.108 352.838 168.264C348.553 201.464 295.589 206.638 268.42 205.062C267.767 205.024 267.349 204.382 267.555 203.76C270.374 195.225 275.31 179.533 275.31 176.424C275.31 174.801 280.044 174.684 286.175 174.533C295.457 174.305 307.938 173.997 312.034 168.264C317.474 160.649 289.818 158.745 275.31 158.745L240.502 154.878C239.696 154.789 239.11 155.618 239.497 156.33ZM129.901 284.829C129.34 285.497 128.315 285.174 128.347 284.301C129.171 261.761 168.699 189.876 189.339 155.141C189.519 154.838 189.837 154.666 190.19 154.666H205.626C205.832 154.666 206.026 154.723 206.192 154.845C224.038 167.866 241.583 226.29 248.811 256.58C249.031 257.502 247.962 258.173 247.222 257.581L229.507 243.412C229.233 243.193 228.86 243.135 228.53 243.255C202.621 252.677 180.774 248.085 169.266 245.666C164.576 244.68 161.604 244.056 160.773 244.887C160.332 245.328 157.968 248.482 154.587 252.992C147.982 261.804 137.498 275.793 129.901 284.829Z" fill="#0038FF"/>
</g>
</g>
<defs>
<filter id="filter0_di_17_5" x="33" y="10" width="324" height="331" filterUnits="userSpaceOnUse" color-interpolation-filters="sRGB">
<feFlood flood-opacity="0" result="BackgroundImageFix"/>
<feColorMatrix in="SourceAlpha" type="matrix" values="0 0 0 0 0 0 0 0 0 0 0 0 0 0 0 0 0 0 127 0" result="hardAlpha"/>
<feOffset dy="4"/>
<feGaussianBlur stdDeviation="2"/>
<feComposite in2="hardAlpha" operator="out"/>
<feColorMatrix type="matrix" values="0 0 0 0 0 0 0 0 0 0 0 0 0 0 0 0 0 0 0.25 0"/>
<feBlend mode="normal" in2="BackgroundImageFix" result="effect1_dropShadow_17_5"/>
<feBlend mode="normal" in="SourceGraphic" in2="effect1_dropShadow_17_5" result="shape"/>
<feColorMatrix in="SourceAlpha" type="matrix" values="0 0 0 0 0 0 0 0 0 0 0 0 0 0 0 0 0 0 127 0" result="hardAlpha"/>
<feOffset dy="4"/>
<feGaussianBlur stdDeviation="2"/>
<feComposite in2="hardAlpha" operator="arithmetic" k2="-1" k3="1"/>
<feColorMatrix type="matrix" values="0 0 0 0 0 0 0 0 0 0 0 0 0 0 0 0 0 0 0.25 0"/>
<feBlend mode="normal" in2="shape" result="effect2_innerShadow_17_5"/>
</filter>
<clipPath id="clip0_17_5">
<rect width="1771" height="344" fill="white"/>
</clipPath>
</defs>
</svg>
