<svg width="1771" height="344" viewBox="0 0 1771 344" fill="none" xmlns="http://www.w3.org/2000/svg">
<g clip-path="url(#clip0_15_3)">
<rect width="1771" height="344" fill="white"/>
<g filter="url(#filter0_di_15_3)">
<path fill-rule="evenodd" clip-rule="evenodd" d="M239.497 156.33C259.533 193.189 292.576 268.158 271.315 286.502C271.259 286.551 271.199 286.591 271.133 286.625C261.109 291.751 233.496 292.101 202.169 252.962C201.979 252.724 201.685 252.578 201.38 252.578H195.615C195.271 252.578 194.958 252.744 194.774 253.035C172.414 288.487 122.328 352.287 98.4921 327.372C89.7826 318.916 81.6125 284.596 118.608 214.969C126.971 199.27 143.727 168.725 149.93 160.555C150.471 159.843 150.01 158.588 149.12 158.517C135.925 157.461 107.646 158.001 80.8268 167.284C79.9278 167.596 79.95 168.849 80.8598 169.128C91.1026 172.259 108.448 176.947 115.238 176.526C115.77 176.493 116.263 176.833 116.377 177.353L121.08 198.871C121.21 199.47 120.795 200.044 120.182 200.076C95.4742 201.374 46.0812 196.815 37.2859 168.264C34.1169 155.138 55.9909 127.821 168.717 123.407C169.026 123.395 169.325 123.241 169.504 122.989L175.67 114.359C175.885 114.057 175.921 113.67 175.753 113.34C170.748 103.514 158.436 84.1504 146.035 78.9977C145.405 78.7358 144.738 79.2126 144.759 79.8948C144.942 85.737 146.28 95.6923 150.512 99.5055C150.996 99.9411 151.092 100.715 150.632 101.175L129.513 122.29C128.999 122.804 128.126 122.616 127.875 121.934C122.287 106.774 112.093 75.2673 112.093 59.4727C112.093 43.2276 133.66 40.9082 144.589 41.782C144.689 41.79 144.783 41.8127 144.876 41.8509C161.1 48.498 178.204 67.1122 188.754 78.5937C190.783 80.8015 192.569 82.7456 194.061 84.2901C194.545 84.7914 195.356 84.673 195.671 84.0517C207.2 61.3384 264.438 2.04836 285.689 10.8919C285.834 10.9521 285.956 11.0465 286.055 11.1677L286.229 11.3804C298.375 26.2124 314.217 45.5586 271.851 122.266C271.541 122.828 270.775 122.981 270.297 122.553L245.942 100.766C245.612 100.471 245.511 100.006 245.697 99.6062C252.576 84.8745 265.212 55.8879 263.069 52.6732C260.899 49.4192 228.805 91.855 212.887 113.673C212.79 113.805 212.731 113.952 212.711 114.114C212.316 117.357 212.881 123.388 218.184 123.388C224.985 123.388 358.278 126.108 352.838 168.264C348.553 201.464 295.589 206.638 268.42 205.062C267.767 205.024 267.349 204.382 267.555 203.76C270.374 195.225 275.31 179.533 275.31 176.424C275.31 174.801 280.044 174.684 286.175 174.533C295.457 174.305 307.938 173.997 312.034 168.264C317.474 160.649 289.818 158.745 275.31 158.745L240.502 154.878C239.696 154.789 239.11 155.618 239.497 156.33ZM129.901 284.829C129.34 285.497 128.315 285.174 128.347 284.301C129.171 261.761 168.699 189.876 189.339 155.141C189.519 154.838 189.837 154.666 190.19 154.666H205.626C205.832 154.666 206.026 154.723 206.192 154.845C224.038 167.866 241.583 226.29 248.811 256.58C249.031 257.502 247.962 258.173 247.222 257.581L229.507 243.412C229.233 243.193 228.86 243.135 228.53 243.255C202.621 252.677 180.774 248.085 169.266 245.666C164.576 244.68 161.604 244.056 160.773 244.887C160.332 245.328 157.968 248.482 154.587 252.992C147.982 261.804 137.498 275.793 129.901 284.829Z" fill="#0038FF"/>
</g>
<path d="M365 262V86.25H399V262H365ZM390 262V232H487.25V262H390ZM390 186.75V157.75H478.5V186.75H390ZM390 116.25V86.25H486V116.25H390ZM560.926 264.5C549.926 264.5 540.009 261.75 531.176 256.25C522.342 250.75 515.426 243.25 510.426 233.75C505.426 224.25 502.926 213.583 502.926 201.75C502.926 189.75 505.426 179 510.426 169.5C515.426 160 522.342 152.5 531.176 147C540.009 141.5 549.926 138.75 560.926 138.75C569.592 138.75 577.342 140.5 584.176 144C591.009 147.5 596.426 152.417 600.426 158.75C604.592 164.917 606.842 171.917 607.176 179.75V223.25C606.842 231.25 604.592 238.333 600.426 244.5C596.426 250.667 591.009 255.583 584.176 259.25C577.342 262.75 569.592 264.5 560.926 264.5ZM566.926 234.25C576.092 234.25 583.509 231.25 589.176 225.25C594.842 219.083 597.676 211.167 597.676 201.5C597.676 195.167 596.342 189.583 593.676 184.75C591.176 179.75 587.592 175.917 582.926 173.25C578.426 170.417 573.092 169 566.926 169C560.926 169 555.592 170.417 550.926 173.25C546.426 175.917 542.842 179.75 540.176 184.75C537.676 189.583 536.426 195.167 536.426 201.5C536.426 208 537.676 213.75 540.176 218.75C542.842 223.583 546.426 227.417 550.926 230.25C555.592 232.917 560.926 234.25 566.926 234.25ZM595.926 312.5V231.5L601.176 202.25L595.926 173V141.25H628.426V312.5H595.926ZM708.898 264.5C698.232 264.5 688.732 262.25 680.398 257.75C672.232 253.25 665.815 247 661.148 239C656.482 231 654.148 221.75 654.148 211.25V141.25H687.148V210.5C687.148 215.5 687.982 219.833 689.648 223.5C691.315 227 693.815 229.667 697.148 231.5C700.482 233.333 704.398 234.25 708.898 234.25C715.732 234.25 721.065 232.167 724.898 228C728.732 223.833 730.648 218 730.648 210.5V141.25H763.398V211.25C763.398 221.917 761.065 231.25 756.398 239.25C751.898 247.25 745.482 253.5 737.148 258C728.982 262.333 719.565 264.5 708.898 264.5ZM789.479 262V141.25H822.479V262H789.479ZM805.979 121.75C800.645 121.75 796.229 120 792.729 116.5C789.229 112.833 787.479 108.333 787.479 103C787.479 97.8333 789.229 93.4167 792.729 89.75C796.229 86.0833 800.645 84.25 805.979 84.25C811.479 84.25 815.895 86.0833 819.229 89.75C822.729 93.4167 824.479 97.8333 824.479 103C824.479 108.333 822.729 112.833 819.229 116.5C815.895 120 811.479 121.75 805.979 121.75ZM936.49 264.5C923.657 264.5 911.74 262.25 900.74 257.75C889.74 253.083 880.074 246.667 871.74 238.5C863.574 230.167 857.24 220.5 852.74 209.5C848.407 198.5 846.24 186.667 846.24 174C846.24 161.333 848.407 149.5 852.74 138.5C857.24 127.5 863.574 117.917 871.74 109.75C880.074 101.583 889.657 95.1667 900.49 90.5C911.49 85.8333 923.49 83.5 936.49 83.5C950.49 83.5 962.824 85.8333 973.49 90.5C984.157 95 993.574 101.25 1001.74 109.25L978.74 132.25C973.907 126.917 967.99 122.75 960.99 119.75C953.99 116.75 945.824 115.25 936.49 115.25C928.324 115.25 920.824 116.667 913.99 119.5C907.324 122.167 901.49 126.167 896.49 131.5C891.49 136.667 887.657 142.917 884.99 150.25C882.324 157.417 880.99 165.333 880.99 174C880.99 182.833 882.324 190.833 884.99 198C887.657 205.167 891.49 211.417 896.49 216.75C901.49 221.917 907.324 225.917 913.99 228.75C920.824 231.583 928.324 233 936.49 233C946.324 233 954.74 231.5 961.74 228.5C968.907 225.5 974.907 221.25 979.74 215.75L1002.74 238.75C994.574 246.917 985.074 253.25 974.24 257.75C963.407 262.25 950.824 264.5 936.49 264.5ZM1104.13 262V192.75C1104.13 185.583 1101.88 179.75 1097.38 175.25C1092.88 170.75 1087.04 168.5 1079.88 168.5C1075.21 168.5 1071.04 169.5 1067.38 171.5C1063.71 173.5 1060.79 176.333 1058.63 180C1056.63 183.667 1055.63 187.917 1055.63 192.75L1042.88 186.25C1042.88 176.75 1044.88 168.5 1048.88 161.5C1052.88 154.333 1058.38 148.75 1065.38 144.75C1072.54 140.75 1080.71 138.75 1089.88 138.75C1099.04 138.75 1107.13 140.75 1114.13 144.75C1121.29 148.75 1126.88 154.25 1130.88 161.25C1134.88 168.25 1136.88 176.333 1136.88 185.5V262H1104.13ZM1022.88 262V81.25H1055.63V262H1022.88ZM1213.76 264.5C1202.76 264.5 1192.84 261.75 1184.01 256.25C1175.17 250.75 1168.26 243.25 1163.26 233.75C1158.26 224.25 1155.76 213.583 1155.76 201.75C1155.76 189.75 1158.26 179 1163.26 169.5C1168.26 160 1175.17 152.5 1184.01 147C1192.84 141.5 1202.76 138.75 1213.76 138.75C1222.42 138.75 1230.17 140.5 1237.01 144C1243.84 147.5 1249.26 152.417 1253.26 158.75C1257.42 164.917 1259.67 171.917 1260.01 179.75V223.25C1259.67 231.25 1257.42 238.333 1253.26 244.5C1249.26 250.667 1243.84 255.583 1237.01 259.25C1230.17 262.75 1222.42 264.5 1213.76 264.5ZM1219.76 234.25C1228.92 234.25 1236.34 231.25 1242.01 225.25C1247.67 219.083 1250.51 211.167 1250.51 201.5C1250.51 195.167 1249.17 189.583 1246.51 184.75C1244.01 179.75 1240.42 175.917 1235.76 173.25C1231.26 170.417 1225.92 169 1219.76 169C1213.76 169 1208.42 170.417 1203.76 173.25C1199.26 175.917 1195.67 179.75 1193.01 184.75C1190.51 189.583 1189.26 195.167 1189.26 201.5C1189.26 208 1190.51 213.75 1193.01 218.75C1195.67 223.583 1199.26 227.417 1203.76 230.25C1208.42 232.917 1213.76 234.25 1219.76 234.25ZM1248.76 262V229.5L1254.01 200L1248.76 171V141.25H1281.26V262H1248.76ZM1310.23 262V141.25H1343.23V262H1310.23ZM1326.73 121.75C1321.4 121.75 1316.98 120 1313.48 116.5C1309.98 112.833 1308.23 108.333 1308.23 103C1308.23 97.8333 1309.98 93.4167 1313.48 89.75C1316.98 86.0833 1321.4 84.25 1326.73 84.25C1332.23 84.25 1336.65 86.0833 1339.98 89.75C1343.48 93.4167 1345.23 97.8333 1345.23 103C1345.23 108.333 1343.48 112.833 1339.98 116.5C1336.65 120 1332.23 121.75 1326.73 121.75ZM1453.49 262V192.75C1453.49 185.583 1451.24 179.75 1446.74 175.25C1442.24 170.75 1436.41 168.5 1429.24 168.5C1424.58 168.5 1420.41 169.5 1416.74 171.5C1413.08 173.5 1410.16 176.333 1407.99 180C1405.99 183.667 1404.99 187.917 1404.99 192.75L1392.24 186.25C1392.24 176.75 1394.24 168.5 1398.24 161.5C1402.41 154.333 1408.08 148.75 1415.24 144.75C1422.58 140.75 1430.83 138.75 1439.99 138.75C1448.83 138.75 1456.74 141 1463.74 145.5C1470.74 149.833 1476.24 155.583 1480.24 162.75C1484.24 169.75 1486.24 177.333 1486.24 185.5V262H1453.49ZM1372.24 262V141.25H1404.99V262H1372.24ZM1535.12 264.5C1529.12 264.5 1524.21 262.5 1520.37 258.5C1516.54 254.5 1514.62 249.583 1514.62 243.75C1514.62 237.917 1516.54 233 1520.37 229C1524.21 225 1529.12 223 1535.12 223C1540.96 223 1545.79 225 1549.62 229C1553.46 233 1555.37 237.917 1555.37 243.75C1555.37 249.583 1553.46 254.5 1549.62 258.5C1545.79 262.5 1540.96 264.5 1535.12 264.5ZM1594.54 262V124.5C1594.54 115.833 1596.46 108.083 1600.29 101.25C1604.12 94.25 1609.46 88.75 1616.29 84.75C1623.29 80.5833 1631.54 78.5 1641.04 78.5C1647.04 78.5 1652.37 79.4167 1657.04 81.25C1661.87 83.0833 1666.46 85.75 1670.79 89.25L1652.04 112.25C1650.54 111.083 1648.87 110.25 1647.04 109.75C1645.37 109.083 1643.37 108.75 1641.04 108.75C1636.71 108.75 1633.29 110.083 1630.79 112.75C1628.46 115.25 1627.29 118.75 1627.29 123.25V262H1594.54ZM1566.54 170V141.25H1686.29V170H1566.54ZM1670.54 262V141.25H1703.29V262H1670.54ZM1686.79 131.5C1681.62 131.5 1677.29 129.75 1673.79 126.25C1670.46 122.75 1668.79 118.417 1668.79 113.25C1668.79 108.083 1670.46 103.75 1673.79 100.25C1677.29 96.75 1681.62 95 1686.79 95C1692.12 95 1696.46 96.75 1699.79 100.25C1703.12 103.75 1704.79 108.083 1704.79 113.25C1704.79 118.417 1703.12 122.75 1699.79 126.25C1696.46 129.75 1692.12 131.5 1686.79 131.5Z" fill="black"/>
</g>
<defs>
<filter id="filter0_di_15_3" x="33" y="10" width="324" height="331" filterUnits="userSpaceOnUse" color-interpolation-filters="sRGB">
<feFlood flood-opacity="0" result="BackgroundImageFix"/>
<feColorMatrix in="SourceAlpha" type="matrix" values="0 0 0 0 0 0 0 0 0 0 0 0 0 0 0 0 0 0 127 0" result="hardAlpha"/>
<feOffset dy="4"/>
<feGaussianBlur stdDeviation="2"/>
<feComposite in2="hardAlpha" operator="out"/>
<feColorMatrix type="matrix" values="0 0 0 0 0 0 0 0 0 0 0 0 0 0 0 0 0 0 0.25 0"/>
<feBlend mode="normal" in2="BackgroundImageFix" result="effect1_dropShadow_15_3"/>
<feBlend mode="normal" in="SourceGraphic" in2="effect1_dropShadow_15_3" result="shape"/>
<feColorMatrix in="SourceAlpha" type="matrix" values="0 0 0 0 0 0 0 0 0 0 0 0 0 0 0 0 0 0 127 0" result="hardAlpha"/>
<feOffset dy="4"/>
<feGaussianBlur stdDeviation="2"/>
<feComposite in2="hardAlpha" operator="arithmetic" k2="-1" k3="1"/>
<feColorMatrix type="matrix" values="0 0 0 0 0 0 0 0 0 0 0 0 0 0 0 0 0 0 0.25 0"/>
<feBlend mode="normal" in2="shape" result="effect2_innerShadow_15_3"/>
</filter>
<clipPath id="clip0_15_3">
<rect width="1771" height="344" fill="white"/>
</clipPath>
</defs>
</svg>
