<svg width="434" height="434" viewBox="0 0 434 434" fill="none" xmlns="http://www.w3.org/2000/svg">
<rect width="434" height="434" fill="black"/>
<g filter="url(#filter0_di_17_11)">
<path fill-rule="evenodd" clip-rule="evenodd" d="M261.497 201.33C281.533 238.189 314.576 313.158 293.315 331.502C293.259 331.551 293.199 331.591 293.133 331.625C283.109 336.751 255.496 337.101 224.169 297.962C223.979 297.724 223.685 297.578 223.38 297.578H217.615C217.271 297.578 216.958 297.744 216.774 298.035C194.414 333.487 144.328 397.287 120.492 372.372C111.783 363.916 103.613 329.596 140.608 259.969C148.971 244.27 165.727 213.725 171.93 205.555C172.471 204.843 172.01 203.588 171.12 203.517C157.925 202.461 129.646 203.001 102.827 212.284C101.928 212.596 101.95 213.849 102.86 214.128C113.103 217.259 130.448 221.947 137.238 221.526C137.77 221.493 138.263 221.833 138.377 222.353L143.08 243.871C143.21 244.47 142.795 245.044 142.182 245.076C117.474 246.374 68.0812 241.815 59.2859 213.264C56.1169 200.138 77.9909 172.821 190.717 168.407C191.026 168.395 191.325 168.241 191.504 167.989L197.67 159.359C197.885 159.057 197.921 158.67 197.753 158.34C192.748 148.514 180.436 129.15 168.035 123.998C167.405 123.736 166.738 124.213 166.759 124.895C166.942 130.737 168.28 140.692 172.512 144.506C172.996 144.941 173.092 145.715 172.632 146.175L151.513 167.29C150.999 167.804 150.126 167.616 149.875 166.934C144.287 151.774 134.093 120.267 134.093 104.473C134.093 88.2276 155.66 85.9082 166.589 86.782C166.689 86.79 166.783 86.8127 166.876 86.8509C183.1 93.498 200.204 112.112 210.754 123.594C212.783 125.802 214.569 127.746 216.061 129.29C216.545 129.791 217.356 129.673 217.671 129.052C229.2 106.338 286.438 47.0484 307.689 55.8919C307.834 55.9521 307.956 56.0465 308.055 56.1677L308.229 56.3804C320.375 71.2124 336.217 90.5586 293.851 167.266C293.541 167.828 292.775 167.981 292.297 167.553L267.942 145.766C267.612 145.471 267.511 145.006 267.697 144.606C274.576 129.875 287.212 100.888 285.069 97.6732C282.899 94.4192 250.805 136.855 234.887 158.673C234.79 158.805 234.731 158.952 234.711 159.114C234.316 162.357 234.881 168.388 240.184 168.388C246.985 168.388 380.278 171.108 374.838 213.264C370.553 246.464 317.589 251.638 290.42 250.062C289.767 250.024 289.349 249.382 289.555 248.76C292.374 240.225 297.31 224.533 297.31 221.424C297.31 219.801 302.044 219.684 308.175 219.533C317.457 219.305 329.938 218.997 334.034 213.264C339.474 205.649 311.818 203.745 297.31 203.745L262.502 199.878C261.696 199.789 261.11 200.618 261.497 201.33ZM151.901 329.829C151.34 330.497 150.315 330.174 150.347 329.301C151.171 306.761 190.699 234.876 211.339 200.141C211.519 199.838 211.837 199.666 212.19 199.666H227.626C227.832 199.666 228.026 199.723 228.192 199.845C246.038 212.866 263.583 271.29 270.811 301.58C271.031 302.502 269.962 303.173 269.222 302.581L251.507 288.412C251.233 288.193 250.86 288.135 250.53 288.255C224.621 297.677 202.774 293.085 191.266 290.666C186.576 289.68 183.604 289.056 182.773 289.887C182.332 290.328 179.968 293.482 176.587 297.992C169.982 306.804 159.498 320.793 151.901 329.829Z" fill="#0038FF"/>
</g>
<defs>
<filter id="filter0_di_17_11" x="55" y="55" width="324" height="331" filterUnits="userSpaceOnUse" color-interpolation-filters="sRGB">
<feFlood flood-opacity="0" result="BackgroundImageFix"/>
<feColorMatrix in="SourceAlpha" type="matrix" values="0 0 0 0 0 0 0 0 0 0 0 0 0 0 0 0 0 0 127 0" result="hardAlpha"/>
<feOffset dy="4"/>
<feGaussianBlur stdDeviation="2"/>
<feComposite in2="hardAlpha" operator="out"/>
<feColorMatrix type="matrix" values="0 0 0 0 0 0 0 0 0 0 0 0 0 0 0 0 0 0 0.25 0"/>
<feBlend mode="normal" in2="BackgroundImageFix" result="effect1_dropShadow_17_11"/>
<feBlend mode="normal" in="SourceGraphic" in2="effect1_dropShadow_17_11" result="shape"/>
<feColorMatrix in="SourceAlpha" type="matrix" values="0 0 0 0 0 0 0 0 0 0 0 0 0 0 0 0 0 0 127 0" result="hardAlpha"/>
<feOffset dy="4"/>
<feGaussianBlur stdDeviation="2"/>
<feComposite in2="hardAlpha" operator="arithmetic" k2="-1" k3="1"/>
<feColorMatrix type="matrix" values="0 0 0 0 0 0 0 0 0 0 0 0 0 0 0 0 0 0 0.25 0"/>
<feBlend mode="normal" in2="shape" result="effect2_innerShadow_17_11"/>
</filter>
</defs>
</svg>
