<svg width="48" height="49" viewBox="0 0 48 49" fill="none" xmlns="http://www.w3.org/2000/svg">
<g filter="url(#filter0_di_30_6)">
<path fill-rule="evenodd" clip-rule="evenodd" d="M29.6325 18.5744C32.1687 23.2531 36.3514 32.7693 33.6602 35.0978C33.653 35.104 33.6455 35.1091 33.637 35.1134C32.3682 35.7641 28.8729 35.8085 24.9075 30.8404C24.8834 30.8102 24.8462 30.7916 24.8076 30.7916H24.0778C24.0343 30.7916 23.9947 30.8127 23.9715 30.8496C21.1411 35.3497 14.801 43.4482 11.7838 40.2856C10.6813 39.2122 9.64716 34.8558 14.3302 26.0177C15.3887 24.025 17.5097 20.1477 18.295 19.1107C18.3634 19.0204 18.3051 18.861 18.1924 18.8519C16.5221 18.7179 12.9426 18.7865 9.5477 19.9649C9.4339 20.0044 9.43671 20.1635 9.55187 20.1989C10.8484 20.5964 13.0441 21.1915 13.9035 21.138C13.9708 21.1338 14.0333 21.1769 14.0477 21.243L14.643 23.9743C14.6595 24.0503 14.6069 24.1232 14.5294 24.1273C11.4018 24.2921 5.14952 23.7134 4.03619 20.0893C3.63505 18.4231 6.40391 14.9556 20.6731 14.3954C20.7122 14.3938 20.7499 14.3742 20.7727 14.3422L21.5532 13.2468C21.5804 13.2085 21.5849 13.1593 21.5637 13.1174C20.9301 11.8702 19.3716 9.41227 17.8019 8.75822C17.7221 8.72498 17.6377 8.7855 17.6404 8.8721C17.6635 9.61367 17.8329 10.8773 18.3686 11.3614C18.4298 11.4167 18.442 11.5149 18.3837 11.5733L15.7105 14.2535C15.6454 14.3188 15.5349 14.2949 15.5031 14.2083C14.7958 12.284 13.5055 8.2847 13.5055 6.27982C13.5055 4.21775 16.2354 3.92333 17.6188 4.03424C17.6316 4.03526 17.6434 4.03814 17.6552 4.043C19.7088 4.88675 21.8739 7.24954 23.2094 8.70694C23.4662 8.98719 23.6923 9.23396 23.8811 9.43002C23.9423 9.49365 24.045 9.47862 24.085 9.39975C25.5442 6.51664 32.7897 -1.00934 35.4796 0.113214C35.4979 0.120853 35.5134 0.132834 35.5259 0.148218L35.548 0.175224C37.0854 2.05792 39.0908 4.51363 33.728 14.2505C33.6887 14.3218 33.5917 14.3412 33.5312 14.287L30.4483 11.5213C30.4066 11.484 30.3937 11.425 30.4174 11.3742C31.2881 9.5042 32.8876 5.82478 32.6163 5.41672C32.3417 5.00368 28.2791 10.3903 26.2641 13.1597C26.2519 13.1765 26.2444 13.1951 26.2419 13.2157C26.1919 13.6274 26.2634 14.3929 26.9347 14.3929C27.7956 14.3929 44.6682 14.7381 43.9795 20.0893C43.4371 24.3035 36.7327 24.9602 33.2937 24.7601C33.211 24.7553 33.1581 24.6738 33.1841 24.595C33.541 23.5116 34.1658 21.5196 34.1658 21.125C34.1658 20.919 34.7651 20.9042 35.5411 20.885C36.716 20.856 38.296 20.817 38.8144 20.0893C39.5031 19.1226 36.0023 18.881 34.1658 18.881L29.7597 18.3901C29.6578 18.3788 29.5835 18.4841 29.6325 18.5744ZM17.0133 33.3166C16.4783 34.0078 15.7291 33.6965 16.0059 32.8674C17.2521 29.1348 20.8304 22.6003 23.0305 18.8523C23.2092 18.5478 23.5356 18.3631 23.8886 18.3631H25.0671C25.2741 18.3631 25.478 18.4233 25.6325 18.561C27.4171 20.152 29.1526 25.1656 30.2107 28.9766C30.4544 29.8544 29.4476 30.4941 28.737 29.9241V29.9241C28.4734 29.7127 28.1184 29.6584 27.7967 29.7616C24.7139 30.7513 22.1324 30.2072 20.7425 29.9143C20.1489 29.7892 19.7726 29.7099 19.6674 29.8154C19.6116 29.8713 19.3123 30.2717 18.8845 30.8442C18.3776 31.5223 17.6903 32.442 17.0133 33.3166Z" fill="#0038FF"/>
</g>
<defs>
<filter id="filter0_di_30_6" x="0" y="0" width="48" height="49" filterUnits="userSpaceOnUse" color-interpolation-filters="sRGB">
<feFlood flood-opacity="0" result="BackgroundImageFix"/>
<feColorMatrix in="SourceAlpha" type="matrix" values="0 0 0 0 0 0 0 0 0 0 0 0 0 0 0 0 0 0 127 0" result="hardAlpha"/>
<feOffset dy="4"/>
<feGaussianBlur stdDeviation="2"/>
<feComposite in2="hardAlpha" operator="out"/>
<feColorMatrix type="matrix" values="0 0 0 0 0 0 0 0 0 0 0 0 0 0 0 0 0 0 0.25 0"/>
<feBlend mode="normal" in2="BackgroundImageFix" result="effect1_dropShadow_30_6"/>
<feBlend mode="normal" in="SourceGraphic" in2="effect1_dropShadow_30_6" result="shape"/>
<feColorMatrix in="SourceAlpha" type="matrix" values="0 0 0 0 0 0 0 0 0 0 0 0 0 0 0 0 0 0 127 0" result="hardAlpha"/>
<feOffset dy="4"/>
<feGaussianBlur stdDeviation="2"/>
<feComposite in2="hardAlpha" operator="arithmetic" k2="-1" k3="1"/>
<feColorMatrix type="matrix" values="0 0 0 0 0 0 0 0 0 0 0 0 0 0 0 0 0 0 0.25 0"/>
<feBlend mode="normal" in2="shape" result="effect2_innerShadow_30_6"/>
</filter>
</defs>
</svg>
