<svg width="324" height="331" viewBox="0 0 324 331" fill="none" xmlns="http://www.w3.org/2000/svg">
<g filter="url(#filter0_di_24_4)">
<path fill-rule="evenodd" clip-rule="evenodd" d="M206.497 146.33C226.533 183.189 259.576 258.158 238.315 276.502C238.259 276.551 238.199 276.591 238.133 276.625C228.109 281.751 200.496 282.101 169.169 242.962C168.979 242.724 168.685 242.578 168.38 242.578H162.615C162.271 242.578 161.958 242.744 161.774 243.035C139.414 278.487 89.3279 342.287 65.4921 317.372C56.7826 308.916 48.6125 274.596 85.6083 204.969C93.9705 189.27 110.727 158.725 116.93 150.555C117.471 149.843 117.01 148.588 116.12 148.517C102.925 147.461 74.6465 148.001 47.8268 157.284C46.9278 157.596 46.95 158.849 47.8598 159.128C58.1026 162.259 75.4483 166.947 82.2379 166.526C82.7697 166.493 83.2632 166.833 83.377 167.353L88.0795 188.871C88.2104 189.47 87.7946 190.044 87.1823 190.076C62.4742 191.374 13.0812 186.815 4.28587 158.264C1.11691 145.138 22.9909 117.821 135.717 113.407C136.026 113.395 136.325 113.241 136.504 112.989L142.67 104.359C142.885 104.057 142.921 103.67 142.753 103.34C137.748 93.5138 125.436 74.1504 113.035 68.9977C112.405 68.7358 111.738 69.2126 111.759 69.8948C111.942 75.737 113.28 85.6923 117.512 89.5055C117.996 89.9411 118.092 90.7153 117.632 91.1754L96.5132 112.29C95.9989 112.804 95.1261 112.616 94.8746 111.934C89.2868 96.7738 79.0935 65.2673 79.0935 49.4727C79.0935 33.2276 100.66 30.9082 111.589 31.782C111.689 31.79 111.783 31.8127 111.876 31.8509C128.1 38.498 145.204 57.1122 155.754 68.5937C157.783 70.8015 159.569 72.7456 161.061 74.2901C161.545 74.7914 162.356 74.673 162.671 74.0517C174.2 51.3384 231.438 -7.95164 252.689 0.891904C252.834 0.952085 252.956 1.04647 253.055 1.16767L253.229 1.38043C265.375 16.2124 281.217 35.5586 238.851 112.266C238.541 112.828 237.775 112.981 237.297 112.553L212.942 90.7657C212.612 90.4713 212.511 90.0063 212.697 89.6062C219.576 74.8745 232.212 45.8879 230.069 42.6732C227.899 39.4192 195.805 81.855 179.887 103.673C179.79 103.805 179.731 103.952 179.711 104.114C179.316 107.357 179.881 113.388 185.184 113.388C191.985 113.388 325.278 116.108 319.838 158.264C315.553 191.464 262.589 196.638 235.42 195.062C234.767 195.024 234.349 194.382 234.555 193.76C237.374 185.225 242.31 169.533 242.31 166.424C242.31 164.801 247.044 164.684 253.175 164.533C262.457 164.305 274.938 163.997 279.034 158.264C284.474 150.649 256.818 148.745 242.31 148.745L207.502 144.878C206.696 144.789 206.11 145.618 206.497 146.33ZM96.9015 274.829C96.3395 275.497 95.315 275.174 95.3469 274.301C96.1705 251.761 135.699 179.876 156.339 145.141C156.519 144.838 156.837 144.665 157.19 144.665H172.626C172.832 144.665 173.026 144.723 173.192 144.845C191.038 157.866 208.583 216.29 215.811 246.58C216.031 247.502 214.962 248.173 214.222 247.581L196.507 233.412C196.233 233.193 195.86 233.135 195.53 233.255C169.621 242.677 147.774 238.085 136.266 235.666C131.576 234.68 128.604 234.056 127.773 234.887C127.332 235.328 124.968 238.482 121.587 242.992C114.982 251.804 104.498 265.793 96.9015 274.829Z" fill="#0038FF"/>
</g>
<defs>
<filter id="filter0_di_24_4" x="0" y="0" width="324" height="331" filterUnits="userSpaceOnUse" color-interpolation-filters="sRGB">
<feFlood flood-opacity="0" result="BackgroundImageFix"/>
<feColorMatrix in="SourceAlpha" type="matrix" values="0 0 0 0 0 0 0 0 0 0 0 0 0 0 0 0 0 0 127 0" result="hardAlpha"/>
<feOffset dy="4"/>
<feGaussianBlur stdDeviation="2"/>
<feComposite in2="hardAlpha" operator="out"/>
<feColorMatrix type="matrix" values="0 0 0 0 0 0 0 0 0 0 0 0 0 0 0 0 0 0 0.25 0"/>
<feBlend mode="normal" in2="BackgroundImageFix" result="effect1_dropShadow_24_4"/>
<feBlend mode="normal" in="SourceGraphic" in2="effect1_dropShadow_24_4" result="shape"/>
<feColorMatrix in="SourceAlpha" type="matrix" values="0 0 0 0 0 0 0 0 0 0 0 0 0 0 0 0 0 0 127 0" result="hardAlpha"/>
<feOffset dy="4"/>
<feGaussianBlur stdDeviation="2"/>
<feComposite in2="hardAlpha" operator="arithmetic" k2="-1" k3="1"/>
<feColorMatrix type="matrix" values="0 0 0 0 0 0 0 0 0 0 0 0 0 0 0 0 0 0 0.25 0"/>
<feBlend mode="normal" in2="shape" result="effect2_innerShadow_24_4"/>
</filter>
</defs>
</svg>
